<?xml version="1.0" encoding="utf-8"?>
<!-- Generator: Adobe Illustrator 27.5.0, SVG Export Plug-In . SVG Version: 6.00 Build 0)  -->
<svg version="1.1" xmlns="http://www.w3.org/2000/svg" xmlns:xlink="http://www.w3.org/1999/xlink" x="0px" y="0px"
	 viewBox="0 0 500 500" style="enable-background:new 0 0 500 500;" xml:space="preserve">
<g id="BACKGROUND">
	<g>
		<path style="fill:#D5DAEB;" d="M424.242,317.048c-8.97-18.916-20.612-36.533-29.199-55.62
			c-8.588-19.087-14.071-40.415-9.761-60.856c5.075-24.067,22.698-43.3,35.675-64.297c12.977-20.997,21.172-49.028,7.073-69.311
			c-10.883-15.657-32.235-21.459-51.377-19.298c-19.142,2.161-36.78,10.871-54.142,19.096
			c-17.362,8.225-35.492,16.246-54.749,16.857c-24.428,0.775-47.499-10.434-68.564-22.638c-21.066-12.204-41.926-25.927-65.8-31.081
			c-23.874-5.154-52.157,0.542-65.769,20.531c-12.765,18.745-9.178,43.977-1.228,65.146c7.949,21.169,19.822,41.317,22.582,63.722
			l2.684-0.809c-15.48,30.546-28.953,62.538-34.11,96.296c-5.157,33.758-1.446,69.656,15.715,99.319
			c17.16,29.662,49.012,52.007,83.661,53.106c21.465,0.681,42.269-6.432,63.214-11.105c42.55-9.494,87.377-8.935,129.67,1.616
			c16.015,3.995,32.642,9.433,48.684,5.545c20.585-4.99,34.895-25.013,37.964-45.67
			C439.535,356.941,433.212,335.964,424.242,317.048z"/>
	</g>
	<g>
		<ellipse style="opacity:0.1;fill:#1A3DC9;" cx="258.11" cy="426.049" rx="216.62" ry="21.144"/>
	</g>
</g>
<g id="OBJECTS">
	<g>
		<path style="fill:#F9B900;" d="M357.227,411.146H119.873c-6.154,0-11.189-5.035-11.189-11.189V106.102
			c0-6.154,5.035-11.189,11.189-11.189h237.354c6.154,0,11.189,5.035,11.189,11.189v293.855
			C368.416,406.11,363.381,411.146,357.227,411.146z"/>
		<polygon style="fill:#FFFFFF;" points="126.967,110.092 352.663,110.092 352.663,396.81 131.131,396.81 		"/>
		<g>
			
				<line style="fill:none;stroke:#1C1259;stroke-width:4.2784;stroke-linecap:round;stroke-linejoin:round;stroke-miterlimit:10;" x1="193.82" y1="147.074" x2="289.414" y2="147.074"/>
			
				<line style="fill:none;stroke:#D5DAEB;stroke-width:3.4227;stroke-linecap:round;stroke-linejoin:round;stroke-miterlimit:10;" x1="193.169" y1="160.162" x2="321.119" y2="160.724"/>
			
				<line style="fill:none;stroke:#D5DAEB;stroke-width:3.4227;stroke-linecap:round;stroke-linejoin:round;stroke-miterlimit:10;" x1="193.169" y1="183.352" x2="321.119" y2="183.915"/>
			
				<line style="fill:none;stroke:#D5DAEB;stroke-width:3.4227;stroke-linecap:round;stroke-linejoin:round;stroke-miterlimit:10;" x1="193.282" y1="172.038" x2="320.634" y2="172.038"/>
		</g>
		<g>
			
				<line style="fill:none;stroke:#1C1259;stroke-width:4.2784;stroke-linecap:round;stroke-linejoin:round;stroke-miterlimit:10;" x1="193.82" y1="204.746" x2="289.414" y2="204.746"/>
			
				<line style="fill:none;stroke:#D5DAEB;stroke-width:3.4227;stroke-linecap:round;stroke-linejoin:round;stroke-miterlimit:10;" x1="193.169" y1="217.835" x2="321.119" y2="218.397"/>
			
				<line style="fill:none;stroke:#D5DAEB;stroke-width:3.4227;stroke-linecap:round;stroke-linejoin:round;stroke-miterlimit:10;" x1="193.169" y1="241.025" x2="321.119" y2="241.587"/>
			
				<line style="fill:none;stroke:#D5DAEB;stroke-width:3.4227;stroke-linecap:round;stroke-linejoin:round;stroke-miterlimit:10;" x1="193.282" y1="229.711" x2="320.634" y2="229.711"/>
		</g>
		<g>
			
				<line style="fill:none;stroke:#1C1259;stroke-width:4.2784;stroke-linecap:round;stroke-linejoin:round;stroke-miterlimit:10;" x1="193.82" y1="262.419" x2="289.414" y2="262.419"/>
			
				<line style="fill:none;stroke:#D5DAEB;stroke-width:3.4227;stroke-linecap:round;stroke-linejoin:round;stroke-miterlimit:10;" x1="193.169" y1="275.508" x2="321.119" y2="276.07"/>
			
				<line style="fill:none;stroke:#D5DAEB;stroke-width:3.4227;stroke-linecap:round;stroke-linejoin:round;stroke-miterlimit:10;" x1="193.169" y1="298.698" x2="321.119" y2="299.26"/>
			
				<line style="fill:none;stroke:#D5DAEB;stroke-width:3.4227;stroke-linecap:round;stroke-linejoin:round;stroke-miterlimit:10;" x1="193.282" y1="287.384" x2="320.634" y2="287.384"/>
		</g>
		<g>
			
				<line style="fill:none;stroke:#1C1259;stroke-width:4.2784;stroke-linecap:round;stroke-linejoin:round;stroke-miterlimit:10;" x1="193.82" y1="320.092" x2="289.414" y2="320.092"/>
			
				<line style="fill:none;stroke:#D5DAEB;stroke-width:3.4227;stroke-linecap:round;stroke-linejoin:round;stroke-miterlimit:10;" x1="193.169" y1="333.18" x2="321.119" y2="333.743"/>
			
				<line style="fill:none;stroke:#D5DAEB;stroke-width:3.4227;stroke-linecap:round;stroke-linejoin:round;stroke-miterlimit:10;" x1="193.169" y1="356.371" x2="321.119" y2="356.933"/>
			
				<line style="fill:none;stroke:#D5DAEB;stroke-width:3.4227;stroke-linecap:round;stroke-linejoin:round;stroke-miterlimit:10;" x1="193.282" y1="345.057" x2="320.634" y2="345.057"/>
		</g>
	</g>
	<g>
		<path style="fill:#D5DAEB;" d="M412.308,45.689c-0.082,0-0.163,0.006-0.245,0.006v-0.006c-0.028,0.002-0.053,0.006-0.08,0.008
			c-6.462,0.057-12.518,1.796-17.761,4.799c-17.189,9.073-18.361,27.362-18.361,27.362c-0.021,1.047-0.011,2.06,0.018,3.054
			c-0.014,0.412-0.031,0.823-0.031,1.238c0,6.894,1.915,13.34,5.239,18.838c1.869,3.214,4.117,5.842,6.538,7.991
			c6.348,5.843,14.773,9.456,24.043,9.616c0.257,0.014,0.396,0.016,0.396,0.016v-0.006c0.082,0.001,0.163,0.006,0.245,0.006
			c20.137,0,36.461-16.324,36.461-36.461S432.444,45.689,412.308,45.689z"/>
		<g>
			<g>
				<defs>
					<circle id="XMLID_20_" cx="409.073" cy="83.116" r="36.461"/>
				</defs>
				<use xlink:href="#XMLID_20_"  style="overflow:visible;fill:#1C1259;"/>
				<clipPath id="XMLID_00000017480695359663840250000000790817455152680075_">
					<use xlink:href="#XMLID_20_"  style="overflow:visible;"/>
				</clipPath>
				<path style="opacity:0.1;clip-path:url(#XMLID_00000017480695359663840250000000790817455152680075_);fill:#1C1259;" d="
					M408.682,29.452v98.665c0,0-48.106-10.119-47.224-52.705C362.341,32.825,408.682,29.452,408.682,29.452z"/>
			</g>
			<g>
				<defs>
					<circle id="XMLID_19_" cx="409.92" cy="83.116" r="27.331"/>
				</defs>
				<use xlink:href="#XMLID_19_"  style="overflow:visible;fill:#FFFFFF;"/>
				<clipPath id="XMLID_00000052789419836335762900000018406614216270980542_">
					<use xlink:href="#XMLID_19_"  style="overflow:visible;"/>
				</clipPath>
				<path style="opacity:0.1;clip-path:url(#XMLID_00000052789419836335762900000018406614216270980542_);fill:#1C1259;" d="
					M408.828,46.655v72.921c0,0-37.018-0.656-36.203-40.752C372.625,78.824,374.503,49.241,408.828,46.655z"/>
			</g>
			<g>
				<rect x="407.839" y="66.557" style="fill:#1C1259;" width="1.687" height="20.661"/>
				
					<rect x="417.502" y="76.22" transform="matrix(-1.836970e-16 1 -1 -1.836970e-16 504.8949 -331.7951)" style="fill:#1C1259;" width="1.687" height="20.661"/>
			</g>
		</g>
	</g>
	<path style="fill:#1C1259;" d="M191.06,92.08l-0.277,23.112l103.758-0.729l0.891-22.475h-19.414c0,0-2.56-34.025-30.388-33.182
		s-27.021,32.812-27.021,32.812L191.06,92.08z"/>
	<circle style="fill:#FFFFFF;" cx="246.474" cy="77.358" r="9.276"/>
	<g>
		<g>
			<g>
				<path style="fill:#FFFFFF;" d="M393.939,259.298c2.25,0,2.254-3.497,0-3.497C391.689,255.801,391.685,259.298,393.939,259.298
					L393.939,259.298z"/>
			</g>
		</g>
		<g>
			<g>
				<g>
					<path style="fill:#FFFFFF;" d="M391.935,262.737c0.001,0.058,0.001,0.115,0.002,0.173c0.01,0.914,0.797,1.791,1.748,1.748
						c0.938-0.042,1.759-0.768,1.748-1.748c-0.001-0.058-0.001-0.115-0.002-0.173c-0.01-0.914-0.797-1.791-1.748-1.748
						C392.745,261.031,391.924,261.757,391.935,262.737L391.935,262.737z"/>
				</g>
			</g>
			<g>
				<g>
					<path style="fill:#FFFFFF;" d="M405.538,258.303c2.25,0,2.254-3.497,0-3.497C403.289,254.807,403.285,258.303,405.538,258.303
						L405.538,258.303z"/>
				</g>
			</g>
			<g>
				<g>
					<path style="fill:#FFFFFF;" d="M404.991,263.668c0.019,0.023,0.038,0.047,0.057,0.07c-0.15-0.257-0.3-0.514-0.45-0.771
						c0.007,0.031,0.013,0.062,0.02,0.093c0-0.31,0-0.62,0-0.93c0.034-0.084,0.069-0.168,0.103-0.252
						c-0.561,0.727-0.134,1.99,0.627,2.392c0.928,0.49,1.793,0.149,2.392-0.627c0.592-0.767,0.267-1.782-0.278-2.447
						c-0.581-0.711-1.877-0.648-2.472,0C404.298,261.951,404.371,262.91,404.991,263.668L404.991,263.668z"/>
				</g>
			</g>
		</g>
	</g>
	<g>
		<g>
			<g>
				<g>
					<g>
						<g>
							<defs>
								<polygon id="XMLID_25_" points="319.607,311.497 340.322,429.557 439.192,430.401 454.258,307.281 								"/>
							</defs>
							<clipPath id="XMLID_00000021078625219692780580000009995303522412022708_">
								<use xlink:href="#XMLID_25_"  style="overflow:visible;"/>
							</clipPath>
						</g>
						<g>
							<defs>
								<polygon id="XMLID_24_" points="319.607,311.497 340.322,429.557 439.192,430.401 454.258,307.281 								"/>
							</defs>
							<use xlink:href="#XMLID_24_"  style="overflow:visible;fill:#EE4266;"/>
							<clipPath id="XMLID_00000060032547969272631040000015472931130156879274_">
								<use xlink:href="#XMLID_24_"  style="overflow:visible;"/>
							</clipPath>
							<path style="opacity:0.1;clip-path:url(#XMLID_00000060032547969272631040000015472931130156879274_);fill:#EE4266;" d="
								M466.582,298.567l-155.727,4.779l24.455,135.207l112.719,0.843l2.249-37.667c0,0-70.836,18.552-100.913,9.276l-15.179-87.983
								l127.899-9.838L466.582,298.567z"/>
						</g>
						<g>
							<defs>
								<polygon id="XMLID_23_" points="319.607,311.497 340.322,429.557 439.192,430.401 454.258,307.281 								"/>
							</defs>
							<clipPath id="XMLID_00000175315283311209441080000012494864928238114730_">
								<use xlink:href="#XMLID_23_"  style="overflow:visible;"/>
							</clipPath>
						</g>
					</g>
					<g>
						<g>
							<ellipse style="fill:#1C1259;" cx="385.152" cy="294.192" rx="74.684" ry="11.384"/>
							<ellipse style="fill:#1C1259;" cx="382.852" cy="279.663" rx="62.239" ry="11.384"/>
						</g>
					</g>
					<g>
						<defs>
							<path id="XMLID_5_" d="M459.752,293.366c-4.826,2.991-9.929,5.466-15.216,7.512l1.253-21.215c0,0-69.231,20.871-125.124,0
								l4.195,19.32c-8.835-2.438-14.146-4.352-14.146-4.352l0.645,18.974c55.486,29.093,149.037,5.06,149.037,5.06L459.752,293.366
								z"/>
						</defs>
						<use xlink:href="#XMLID_5_"  style="overflow:visible;fill:#D5DAEB;"/>
						<clipPath id="XMLID_00000101105608467417584620000014392012909818369952_">
							<use xlink:href="#XMLID_5_"  style="overflow:visible;"/>
						</clipPath>
						<path style="opacity:0.1;clip-path:url(#XMLID_00000101105608467417584620000014392012909818369952_);fill:#1C1259;" d="
							M448.872,271.019l-133.802-3.654l6.465,26.704l-18.552-5.622l3.654,35.699c0,0,69.15,28.391,158.538,2.811l0.843-14.336
							c0,0-126.774,20.239-149.824-3.373l0.562-6.184l13.493,0.562l-1.687-17.709c0,0,60.717,25.861,119.185-2.249L448.872,271.019z
							"/>
					</g>
				</g>
			</g>
			<g>
				<defs>
					<ellipse id="XMLID_10_" cx="390.967" cy="375.306" rx="31.202" ry="30.358"/>
				</defs>
				<use xlink:href="#XMLID_10_"  style="overflow:visible;fill:#FFFFFF;"/>
				<clipPath id="XMLID_00000076574913338378272110000008664368176138604975_">
					<use xlink:href="#XMLID_10_"  style="overflow:visible;"/>
				</clipPath>
				<g style="clip-path:url(#XMLID_00000076574913338378272110000008664368176138604975_);">
					<g>
						<path style="fill:#D5DAEB;" d="M411.182,380.13c-0.501-4.409-3.76-5.537-6.778-5.605c-0.016-0.78-0.054-1.242-0.054-1.242
							h-28.815c0,13.624,4.698,18.949,17.539,18.949c4.275,0,6.947-2.104,8.618-4.906
							C404.169,387.451,411.995,387.288,411.182,380.13z M403.003,384.497c0.897-2.554,1.239-5.279,1.354-7.405
							c2.171,0.227,4.226,1.103,4.316,3.617C408.797,384.174,405.435,384.62,403.003,384.497z"/>
						<ellipse style="fill:#1C1259;" cx="389.943" cy="373.283" rx="14.407" ry="2.975"/>
					</g>
					<g>
						
							<path style="fill:none;stroke:#D5DAEB;stroke-width:0.9324;stroke-linecap:round;stroke-linejoin:round;stroke-miterlimit:10;" d="
							M380.847,355.145c1.106,0.316,2.244,0.648,3.144,1.365s1.511,1.924,1.187,3.028c-0.3,1.023-1.275,1.671-2.161,2.264
							c-0.886,0.593-1.826,1.332-1.98,2.387c-0.154,1.055,1.107,2.205,1.953,1.557"/>
						
							<path style="fill:none;stroke:#D5DAEB;stroke-width:0.9324;stroke-linecap:round;stroke-linejoin:round;stroke-miterlimit:10;" d="
							M388.18,348.696c1.222,0.57,2.479,1.168,3.473,2.461c0.994,1.292,1.669,3.468,1.311,5.458
							c-0.332,1.845-1.408,3.012-2.387,4.081c-0.979,1.068-2.017,2.401-2.188,4.303c-0.17,1.902,1.222,3.976,2.158,2.808"/>
						
							<path style="fill:none;stroke:#D5DAEB;stroke-width:0.9324;stroke-linecap:round;stroke-linejoin:round;stroke-miterlimit:10;" d="
							M395.947,354.953c1.106,0.316,2.244,0.648,3.144,1.365s1.511,1.924,1.187,3.028c-0.3,1.023-1.275,1.671-2.161,2.264
							c-0.886,0.593-1.826,1.332-1.98,2.387s1.107,2.205,1.953,1.557"/>
					</g>
				</g>
				
					<polygon style="opacity:0.1;clip-path:url(#XMLID_00000076574913338378272110000008664368176138604975_);fill:#1C1259;" points="
					390.194,320.773 390.194,419.438 347.186,422.6 345.289,326.465 				"/>
			</g>
		</g>
		<g>
			<g>
				<path style="fill:#1C1259;" d="M359.268,248.532c-8.045,0-15.014-85.032,20.131-82.923
					c35.145,2.108,25.406,82.221,19.478,82.221C392.949,247.829,367.313,248.532,359.268,248.532z"/>
				<g>
					<g>
						<path style="fill:#1C1259;" d="M376.263,306.139l1.315,4.865c0,0-21.087,20.755-27.793,11.699
							C340.653,310.369,376.263,306.139,376.263,306.139z"/>
						<path style="fill:#EFB6AB;" d="M429.234,264.034c-2.449-0.552-4.997,0.354-7.195,1.564c-2.315,1.275-4.419,2.892-6.513,4.503
							c-3.646,2.805-9.965,8.471-15.592,13.398c-2.971,2.208-5.795,4.655-8.534,7.197c0,0-0.001,0.001-0.001,0.001l0,0
							c-2.154,1.999-4.257,4.056-6.336,6.099c-3.267,3.209-6.538,6.428-9.62,9.81c-6.384,1.196-23.725,5.141-22.235,12.497
							c1.521,7.51,19.487-4.849,25.395-9.148c12.974-4.136,25.526-9.584,37.393-16.244c1.182-0.664,2.365-1.35,3.478-2.123
							c4.448-2.666,8.894-5.939,11.334-9.05c2.29-2.919,4.212-6.348,4.277-10.051C435.149,268.782,432.862,264.851,429.234,264.034z
							"/>
						<g>
							<defs>
								<path id="SVGID_1_" d="M386.087,282.456c0.126,1.745,0.522,3.471,1.17,5.098c0.537,1.35,1.262,2.652,2.313,3.659
									c2.154,2.066,5.589,2.852,6.923,5.517c1.361,2.72-0.151,6.129,0.901,8.981c1.077,2.922,4.384,4.264,7.339,5.277
									c-0.733-1.095-0.748-2.551-0.323-3.797c0.425-1.246,1.239-2.32,2.094-3.324c6.448-7.577,15.618-12.257,23.221-18.685
									c1.857-1.57,3.621-3.245,5.383-4.919c2.559-2.431,5.18-4.947,6.632-8.158c1.061-2.349,1.421-5.126,0.412-7.497
									c-0.842-1.98-2.556-3.493-4.46-4.509c-3.435-1.831-7.635-2.18-11.326-0.94c-3.176,1.067-5.862,3.197-8.475,5.287
									c-5.432,4.345-10.865,8.69-16.298,13.036c-1.709,1.367-3.469,2.762-5.556,3.428c-3.224,1.03-6.871,0.205-10.005,1.484"/>
							</defs>
							<use xlink:href="#SVGID_1_"  style="overflow:visible;fill:#F9B900;"/>
							<clipPath id="SVGID_00000166643011885649704490000001667557078490278067_">
								<use xlink:href="#SVGID_1_"  style="overflow:visible;"/>
							</clipPath>
							<path style="opacity:0.1;clip-path:url(#SVGID_00000166643011885649704490000001667557078490278067_);fill:#1C1259;" d="
								M382.955,279.312c0,0,0.281,10.822,4.638,12.79c0,0,5.622-0.843,15.882-8.714c10.26-7.871,23.331-26.282,31.061-20.52
								c7.73,5.762-38.651,41.602-37.948,45.959s11.806,3.654,11.806,3.654s47.927-39.072,35.98-52.003
								C432.428,247.548,382.955,279.312,382.955,279.312z"/>
						</g>
					</g>
					<g>
						<path style="fill:#1C1259;" d="M392.694,307.1l-1.315,4.865c0,0,21.087,20.755,27.793,11.699
							C428.305,311.33,392.694,307.1,392.694,307.1z"/>
						<path style="fill:#EFB6AB;" d="M393.516,307.567c-3.082-3.382-6.353-6.602-9.62-9.81c-2.08-2.043-4.182-4.099-6.336-6.099l0,0
							c0,0-0.001-0.001-0.001-0.001c-2.739-2.542-5.564-4.99-8.534-7.197c-5.628-4.927-11.946-10.593-15.592-13.398
							c-2.094-1.611-4.198-3.228-6.513-4.503c-2.198-1.21-4.746-2.115-7.195-1.564c-3.628,0.817-5.915,4.749-5.849,8.452
							c0.065,3.703,1.987,7.132,4.277,10.051c2.44,3.111,6.886,6.384,11.334,9.05c1.113,0.774,2.296,1.46,3.478,2.123
							c11.867,6.661,24.419,12.108,37.393,16.244c5.908,4.299,23.874,16.658,25.395,9.148
							C417.241,312.708,399.9,308.763,393.516,307.567z"/>
						<g>
							<defs>
								<path id="SVGID_00000009557567866303310240000017871728473596549015_" d="M382.871,283.417
									c-0.126,1.745-0.522,3.471-1.17,5.098c-0.537,1.35-1.262,2.652-2.313,3.659c-2.154,2.066-5.589,2.852-6.923,5.517
									c-1.361,2.72,0.151,6.129-0.901,8.981c-1.077,2.922-4.384,4.264-7.339,5.277c0.733-1.095,0.748-2.551,0.323-3.797
									s-1.239-2.32-2.094-3.324c-6.448-7.577-15.618-12.257-23.221-18.685c-1.857-1.57-3.621-3.245-5.383-4.919
									c-2.559-2.431-5.18-4.947-6.632-8.158c-1.061-2.349-1.421-5.126-0.412-7.497c0.843-1.98,2.556-3.493,4.46-4.509
									c3.435-1.831,7.635-2.18,11.326-0.94c3.176,1.067,5.862,3.197,8.475,5.288c5.433,4.345,10.865,8.69,16.298,13.036
									c1.709,1.367,3.469,2.762,5.556,3.428c3.224,1.03,6.871,0.205,10.005,1.484"/>
							</defs>
							<use xlink:href="#SVGID_00000009557567866303310240000017871728473596549015_"  style="overflow:visible;fill:#F9B900;"/>
							<clipPath id="SVGID_00000052799757200309955570000001563659927143345541_">
								<use xlink:href="#SVGID_00000009557567866303310240000017871728473596549015_"  style="overflow:visible;"/>
							</clipPath>
							<path style="opacity:0.1;clip-path:url(#SVGID_00000052799757200309955570000001563659927143345541_);fill:#1C1259;" d="
								M385.345,292.383c0,0-45.397-29.093-51.159-22.628c-5.762,6.465,45.538,34.715,45.538,34.715l-14.336,12.649l-47.646-49.051
								l11.103-15.179l58.187,14.758L385.345,292.383z"/>
						</g>
					</g>
				</g>
				<g>
					<g>
						<defs>
							<path id="XMLID_17_" d="M425.117,265.223c-0.136-0.625-0.433-1.192-0.781-1.734c-3.961-8.686-11.924-24.568-17.175-30.978
								c-0.841-1.026-1.723-2.024-2.712-2.907c-0.776-0.693-1.615-1.313-2.479-1.891c-4.354-2.909-9.791-4.315-15.083-4.775
								c-10.672-1.478-19.531-0.565-25.471,2.158c-3.057,1.581-12.448,10.155-15.347,13.413
								c-4.903,5.509-9.806,11.018-14.709,16.527c-0.818,0.919-1.699,2.027-1.562,3.305c0.078,0.733,0.486,1.367,0.888,1.956
								c7.328,10.728,17.377,18.744,27.267,26.592c0.266,0.211,0.556,0.431,0.884,0.429c0.286-0.002,0.545-0.173,0.787-0.342
								c1.346-0.937,2.773-2.14,2.994-3.878c0.34-2.671-0.83-4.975-2.604-6.835c-2.26-2.369-4.301-5.269-6.783-7.924
								c-2.976-3.183-5.743-6.363-9.017-9.049c3.604-4.294,14.85-16.192,19.345-19.754c0,0,3.768,43.07,4.357,43.289
								c7.634,2.836,19.871,3.927,27.814,2.446c0.827-0.154,1.756-0.413,2.156-1.224c0.297-0.601,0.209-1.335,0.114-2.011
								c-0.933-6.608-1.865-13.216-2.798-19.824c-0.606-6.599-2.155-11.762-2.838-17.813c-0.174-1.546-0.415-3.079-0.68-4.605
								c1.849,1.262,3.549,2.782,5.177,4.324c6.857,6.496,13.12,13.614,18.687,21.236c0.348,0.476,0.702,0.975,0.812,1.553
								c0.217,1.142-0.555,2.211-1.265,3.133c-3.407,4.423-6.391,9.168-8.899,14.152c-0.125,0.249-0.253,0.529-0.176,0.796
								c0.074,0.256,0.389,0.348,0.536,0.572c1.556,2.36,2.025,3.109,4.086,4.468c5.587-6.746,11.769-13.785,14.14-21.573
								C425.102,267.407,425.35,266.293,425.117,265.223z"/>
						</defs>
						<clipPath id="XMLID_00000075880513604514434260000018362258142635024784_">
							<use xlink:href="#XMLID_17_"  style="overflow:visible;"/>
						</clipPath>
					</g>
					<g>
						<defs>
							<path id="XMLID_16_" d="M425.117,265.223c-0.136-0.625-0.433-1.192-0.781-1.734c-3.961-8.686-11.924-24.568-17.175-30.978
								c-0.841-1.026-1.723-2.024-2.712-2.907c-0.776-0.693-1.615-1.313-2.479-1.891c-4.354-2.909-9.791-4.315-15.083-4.775
								c-10.672-1.478-19.531-0.565-25.471,2.158c-3.057,1.581-12.448,10.155-15.347,13.413
								c-4.903,5.509-9.806,11.018-14.709,16.527c-0.818,0.919-1.699,2.027-1.562,3.305c0.078,0.733,0.486,1.367,0.888,1.956
								c7.328,10.728,17.377,18.744,27.267,26.592c0.266,0.211,0.556,0.431,0.884,0.429c0.286-0.002,0.545-0.173,0.787-0.342
								c1.346-0.937,2.773-2.14,2.994-3.878c0.34-2.671-0.83-4.975-2.604-6.835c-2.26-2.369-4.301-5.269-6.783-7.924
								c-2.976-3.183-5.743-6.363-9.017-9.049c3.604-4.294,14.85-16.192,19.345-19.754c0,0,3.768,43.07,4.357,43.289
								c7.634,2.836,19.871,3.927,27.814,2.446c0.827-0.154,1.756-0.413,2.156-1.224c0.297-0.601,0.209-1.335,0.114-2.011
								c-0.933-6.608-1.865-13.216-2.798-19.824c-0.606-6.599-2.155-11.762-2.838-17.813c-0.174-1.546-0.415-3.079-0.68-4.605
								c1.849,1.262,3.549,2.782,5.177,4.324c6.857,6.496,13.12,13.614,18.687,21.236c0.348,0.476,0.702,0.975,0.812,1.553
								c0.217,1.142-0.555,2.211-1.265,3.133c-3.407,4.423-6.391,9.168-8.899,14.152c-0.125,0.249-0.253,0.529-0.176,0.796
								c0.074,0.256,0.389,0.348,0.536,0.572c1.556,2.36,2.025,3.109,4.086,4.468c5.587-6.746,11.769-13.785,14.14-21.573
								C425.102,267.407,425.35,266.293,425.117,265.223z"/>
						</defs>
						<use xlink:href="#XMLID_16_"  style="overflow:visible;fill:#EE4266;"/>
						<clipPath id="XMLID_00000000909465560348123420000007781853831668413829_">
							<use xlink:href="#XMLID_16_"  style="overflow:visible;"/>
						</clipPath>
						<path style="opacity:0.1;clip-path:url(#XMLID_00000000909465560348123420000007781853831668413829_);fill:#1C1259;" d="
							M405.775,226.36c0,0-13.126-19.396-55.469-4.216L324.9,258.616l35.568,33.099l2.752-3.373l-28.158-30.358l22.442-23.823
							c0,0,32.181-11.174,50.176-3.795L405.775,226.36z"/>
						
							<polygon style="opacity:0.1;clip-path:url(#XMLID_00000000909465560348123420000007781853831668413829_);fill:#1C1259;" points="
							393.284,241.961 415.09,266.205 403.446,286.234 412.338,292.98 416.784,287.92 409.798,283.071 419.325,264.519 
							389.049,235.004 						"/>
						<g style="clip-path:url(#XMLID_00000000909465560348123420000007781853831668413829_);">
							<ellipse style="fill:#F9B900;" cx="388.933" cy="253.802" rx="3.282" ry="3.479"/>
							<ellipse style="fill:#F9B900;" cx="397.077" cy="266.241" rx="3.282" ry="3.479"/>
							<ellipse style="fill:#F9B900;" cx="380.581" cy="263.342" rx="3.282" ry="3.479"/>
							<ellipse style="fill:#F9B900;" cx="390.284" cy="277.836" rx="3.282" ry="3.479"/>
							<ellipse style="fill:#F9B900;" cx="366.025" cy="271.072" rx="3.282" ry="3.479"/>
							<ellipse style="fill:#F9B900;" cx="371.48" cy="246.898" rx="3.282" ry="3.479"/>
							<ellipse style="fill:#F9B900;" cx="397.077" cy="230.489" rx="3.282" ry="3.479"/>
							<ellipse style="fill:#F9B900;" cx="378.64" cy="234.354" rx="3.282" ry="3.479"/>
							<ellipse style="fill:#F9B900;" cx="404.84" cy="252.713" rx="3.282" ry="3.479"/>
							<ellipse style="fill:#F9B900;" cx="419.395" cy="266.241" rx="3.282" ry="3.479"/>
							<ellipse style="fill:#F9B900;" cx="411.632" cy="242.084" rx="3.282" ry="3.479"/>
							<ellipse style="fill:#F9B900;" cx="411.487" cy="280.436" rx="3.282" ry="3.479"/>
							<ellipse style="fill:#F9B900;" cx="351.47" cy="267.207" rx="3.282" ry="3.479"/>
							<ellipse style="fill:#F9B900;" cx="359.233" cy="285.566" rx="3.282" ry="3.479"/>
							<ellipse style="fill:#F9B900;" cx="363.114" cy="231.455" rx="3.282" ry="3.479"/>
							<ellipse style="fill:#F9B900;" cx="332.063" cy="257.544" rx="3.282" ry="3.479"/>
							<ellipse style="fill:#F9B900;" cx="350.5" cy="244.983" rx="3.282" ry="3.479"/>
						</g>
					</g>
					<g>
						<defs>
							<path id="XMLID_15_" d="M425.117,265.223c-0.136-0.625-0.433-1.192-0.781-1.734c-3.961-8.686-11.924-24.568-17.175-30.978
								c-0.841-1.026-1.723-2.024-2.712-2.907c-0.776-0.693-1.615-1.313-2.479-1.891c-4.354-2.909-9.791-4.315-15.083-4.775
								c-10.672-1.478-19.531-0.565-25.471,2.158c-3.057,1.581-12.448,10.155-15.347,13.413
								c-4.903,5.509-9.806,11.018-14.709,16.527c-0.818,0.919-1.699,2.027-1.562,3.305c0.078,0.733,0.486,1.367,0.888,1.956
								c7.328,10.728,17.377,18.744,27.267,26.592c0.266,0.211,0.556,0.431,0.884,0.429c0.286-0.002,0.545-0.173,0.787-0.342
								c1.346-0.937,2.773-2.14,2.994-3.878c0.34-2.671-0.83-4.975-2.604-6.835c-2.26-2.369-4.301-5.269-6.783-7.924
								c-2.976-3.183-5.743-6.363-9.017-9.049c3.604-4.294,14.85-16.192,19.345-19.754c0,0,3.768,43.07,4.357,43.289
								c7.634,2.836,19.871,3.927,27.814,2.446c0.827-0.154,1.756-0.413,2.156-1.224c0.297-0.601,0.209-1.335,0.114-2.011
								c-0.933-6.608-1.865-13.216-2.798-19.824c-0.606-6.599-2.155-11.762-2.838-17.813c-0.174-1.546-0.415-3.079-0.68-4.605
								c1.849,1.262,3.549,2.782,5.177,4.324c6.857,6.496,13.12,13.614,18.687,21.236c0.348,0.476,0.702,0.975,0.812,1.553
								c0.217,1.142-0.555,2.211-1.265,3.133c-3.407,4.423-6.391,9.168-8.899,14.152c-0.125,0.249-0.253,0.529-0.176,0.796
								c0.074,0.256,0.389,0.348,0.536,0.572c1.556,2.36,2.025,3.109,4.086,4.468c5.587-6.746,11.769-13.785,14.14-21.573
								C425.102,267.407,425.35,266.293,425.117,265.223z"/>
						</defs>
						<clipPath id="XMLID_00000096050420016971650570000009391046169447311542_">
							<use xlink:href="#XMLID_15_"  style="overflow:visible;"/>
						</clipPath>
					</g>
				</g>
				<g>
					<g>
						<path style="fill:#EFB6AB;" d="M390.646,209.487c2.512-2.568,3.203-6.676,3-10.444c-0.204-3.768-1.152-7.453-1.328-11.222
							c-0.119-2.563,0.103-5.241-0.827-7.594c-0.98-2.48-3.139-4.217-5.464-5.088c-2.325-0.871-4.824-0.978-7.279-0.966
							c-1.441,0.007-2.899,0.055-4.285,0.491c-2.933,0.922-5.271,3.557-6.49,6.636c0,0-0.917,2.583-1.408,7.369
							c-0.024,0.236-0.241-0.032-0.251,0.202c-0.541-0.128-0.901,0.16-1.411,0.679c-1.329,1.353-2.055,3.219-1.897,5.204
							c0.13,1.633,0.663,3.452,2.023,4.115c1.26,0.614,2.839-0.302,3.331-1.667c0.071,0.018,0.054,0.014,0.125,0.031
							c-0.022,3.073,0.123,6.146,0.404,9.203c1.053,2.819,2.909,4.18,5.189,4.816c0.588,3.295,0.79,6.659,0.593,10
							c-1.884,0.259-4.27,1.103-6.05,1.77c1.864,2.581,5.521,6.019,8.714,5.973s7.381-3.376,9.171-6.008
							c-1.121-0.237-3.258-1.047-4.378-1.284c-0.299-0.063-0.617-0.137-0.827-0.358c-0.225-0.238-0.271-0.588-0.304-0.913
							c-0.294-2.89-0.476-5.79-0.557-8.694c0.655-0.021,1.316-0.049,1.98-0.075C386.214,211.759,388.483,211.699,390.646,209.487z"
							/>
					</g>
					<g>
						<path style="fill:#FFFFFF;" d="M378.275,200.233h8.686C386.961,200.233,381.711,208.481,378.275,200.233z"/>
						<g>
							<g>
								<path style="fill:#FFFFFF;" d="M372.548,190.952c0,0,3.207-6.56,5.727,0H372.548z"/>
								<path style="fill:#1C1259;" d="M374.075,190.952c0,0,0.404-1.952,1.919-1.671c0,0,0.928,0.401,1.27,1.671H374.075z"/>
								<path style="fill:#1C1259;" d="M372.548,190.952c0,0,2.023-3.136,3.422-2.879s2.304,2.879,2.304,2.879
									s-0.01-3.397-2.375-3.397s-3.351,2.37-3.351,2.37l-0.805-0.672L372.548,190.952z"/>
							</g>
							<g>
								<path style="fill:#FFFFFF;" d="M391.519,190.952c0,0-3.207-6.56-5.727,0H391.519z"/>
								<path style="fill:#1C1259;" d="M389.974,190.952c0,0-0.404-1.952-1.919-1.671c0,0-0.928,0.401-1.27,1.671H389.974z"/>
								<path style="fill:#1C1259;" d="M391.519,190.952c0,0-2.023-3.136-3.422-2.879s-2.304,2.879-2.304,2.879
									s0.01-3.397,2.375-3.397s3.351,2.37,3.351,2.37l0.805-0.672L391.519,190.952z"/>
							</g>
						</g>
						<g>
							<ellipse style="fill:#EE4266;" cx="375.669" cy="194.331" rx="1.85" ry="2.037"/>
							<ellipse style="fill:#EE4266;" cx="389.899" cy="194.563" rx="1.85" ry="2.037"/>
						</g>
						<polygon style="fill:#EE4266;" points="382.227,184.373 386.731,197.109 382.936,197.109 						"/>
						<g>
							
								<ellipse style="fill:none;stroke:#1C1259;stroke-width:0.9324;stroke-miterlimit:10;" cx="390.065" cy="188.953" rx="6.031" ry="6.643"/>
							
								<ellipse style="fill:none;stroke:#1C1259;stroke-width:0.9324;stroke-miterlimit:10;" cx="375.17" cy="189.554" rx="6.031" ry="6.643"/>
							<polygon style="fill:#1C1259;" points="381.123,188.814 383.955,188.213 384.469,190.896 380.82,190.896 							"/>
						</g>
					</g>
				</g>
			</g>
			<path style="fill:#1C1259;" d="M367.666,179.438c0,0,9.116,5.378,23.824,1.001c0,0,0.311-13.004-11.121-13.004
				S367.666,179.438,367.666,179.438z"/>
		</g>
		<g>
			<g>
				<defs>
					<rect id="XMLID_40_" x="356.76" y="258.986" width="53.931" height="35.738"/>
				</defs>
				<use xlink:href="#XMLID_40_"  style="overflow:visible;fill:#D5DAEB;"/>
				<clipPath id="XMLID_00000022525783702653809660000016619916499122233216_">
					<use xlink:href="#XMLID_40_"  style="overflow:visible;"/>
				</clipPath>
				
					<rect x="348.767" y="248.075" style="opacity:0.1;clip-path:url(#XMLID_00000022525783702653809660000016619916499122233216_);fill:#1C1259;" width="34.996" height="60.084"/>
			</g>
			<ellipse style="fill:#1C1259;" cx="383.725" cy="276.612" rx="5.2" ry="5.179"/>
		</g>
	</g>
	<g>
		<g>
			<g>
				<g>
					<path style="fill:#EFB6AB;" d="M79.015,152.935c0.035,8.592,0.319,17.184,0.852,25.759c0.028,0.451,0.065,0.928,0.324,1.299
						c0.27,0.387,0.727,0.585,1.141,0.811c1.104,0.602,2.027,1.51,3.166,2.04c1.14,0.53,2.681,0.563,3.474-0.412
						c0.836-1.027,0.804-7.97,0.749-10.043c-0.075-2.805-1.449-5.39-2.789-7.855c-0.578-1.063-1.16-2.133-1.91-3.082
						c-1.903-2.41-5.016-4.394-4.99-7.464"/>
				</g>
				<g>
					<g>
						<path style="fill:#EFB6AB;" d="M91.428,126.544c3.52,0.577,6.71,2.901,8.339,6.074c3.203,6.239,0.209,13.997,2.142,20.738
							c0.709,2.473,2.058,4.71,2.978,7.113c0.92,2.403,1.383,5.172,0.294,7.503c-1.117,2.393-3.71,3.852-6.328,4.196
							c-2.618,0.344-5.269-0.273-7.776-1.104c-1.511-0.501-3.018-1.094-4.283-2.061c-1.972-1.507-3.188-3.785-4.195-6.053
							c-3.235-7.29-4.923-15.262-4.919-23.238c0.002-4.517,1.1-9.844,5.239-11.652c0.896-0.489,2.245-1.094,3.977-1.423
							C88.781,126.277,90.376,126.388,91.428,126.544z"/>
					</g>
					<g>
						<path style="fill:#EFB6AB;" d="M80.038,147.874c-1.16-1.274-3.274-0.926-4.423,0.349c-1.148,1.275-1.504,3.168-1.517,4.954
							c-0.013,1.68,0.328,3.545,1.578,4.544c1.738,1.39,4.266,0.36,5.834-1.236c0.602-0.613,1.165-1.367,1.23-2.262
							c0.054-0.729-0.231-1.433-0.51-2.101"/>
					</g>
					<g>
						<g>
							<path style="fill:#1C1259;" d="M95.23,156.44c-1.39-0.061-2.765,0.333-4.063,0.875c-2.503,1.046-5.003,2.945-5.595,5.814
								c-0.521,2.527,0.642,5.23,2.465,6.888c1.823,1.658,4.199,2.411,6.545,2.727c2.123,0.286,4.329,0.239,6.328-0.583
								s3.773-2.504,4.447-4.728c0.557-1.839,0.332-3.849,0.007-5.758c-0.177-1.036-0.391-2.091-0.908-2.98
								c-0.882-1.517-2.539-2.323-4.167-2.499c-1.629-0.177-1.658-0.175-3.259,0.188"/>
						</g>
						<g>
							<defs>
								<path id="XMLID_6_" d="M83.449,147.69c0,0-0.329-3.728,2.769-3.805c3.098-0.077,3.781,3.642,3.781,3.642L83.449,147.69z"/>
							</defs>
							<use xlink:href="#XMLID_6_"  style="overflow:visible;fill:#FFFFFF;"/>
							<clipPath id="XMLID_00000029047260348451178790000009851033033803398289_">
								<use xlink:href="#XMLID_6_"  style="overflow:visible;"/>
							</clipPath>
							<path style="clip-path:url(#XMLID_00000029047260348451178790000009851033033803398289_);fill:#1C1259;" d="M89.794,144.471
								c0,0-4.764-1.109-3.765,3.464l4.279-0.106L89.794,144.471z"/>
						</g>
						<g>
							<defs>
								<path id="XMLID_2_" d="M94.745,147.41c0,0-0.329-3.728,2.769-3.805s3.781,3.642,3.781,3.642L94.745,147.41z"/>
							</defs>
							<use xlink:href="#XMLID_2_"  style="overflow:visible;fill:#FFFFFF;"/>
							<clipPath id="XMLID_00000134232036163856867240000015332635267575782284_">
								<use xlink:href="#XMLID_2_"  style="overflow:visible;"/>
							</clipPath>
							<path style="clip-path:url(#XMLID_00000134232036163856867240000015332635267575782284_);fill:#1C1259;" d="M101.392,144.363
								c0,0-4.764-1.109-3.765,3.464l4.279-0.106L101.392,144.363z"/>
						</g>
						<polygon style="fill:#EE4266;" points="92.781,140.622 98.232,155.951 94.955,156.032 						"/>
						<path style="fill:#FFFFFF;" d="M91.205,160.444l8.557-0.212c0,0,0.464,4.713-3.848,4.524S91.205,160.444,91.205,160.444z"/>
					</g>
					<g>
						<g>
							<path style="fill:#1C1259;" d="M80.649,130.526c-1.873,0.081-3.76,0.461-5.412,1.346c-1.653,0.885-3.058,2.31-3.694,4.074
								c-0.418,1.158-0.495,2.409-0.537,3.639c-0.16,4.675,0.121,9.354,0.508,14.015c0.194,2.339,0.421,4.704,1.212,6.914
								c0.458,1.28,1.124,2.52,2.143,3.42c1.019,0.9,2.434,1.42,3.764,1.139c0.528-0.111,1.068-0.382,1.292-0.873
								c0.116-0.253,0.135-0.538,0.153-0.816c0.135-2.112,0.27-4.225,0.405-6.337c-1.868,0.243-3.878-0.426-5.077-1.879
								c-1.199-1.453-1.448-3.68-0.433-5.267c1.015-1.587,3.298-2.279,4.945-1.366c-0.01-6.053,0.374-12.107,1.149-18.11"/>
						</g>
						<g>
							<g>
								<path style="fill:#1C1259;" d="M79.48,131.063c-0.471-1.466-0.792-2.981-0.956-4.512c-0.175-1.63-0.122-3.429,0.918-4.696
									c0.443-0.539,1.034-0.938,1.653-1.26c2.926-1.521,6.67-1.325,9.421,0.493c0.814,0.538,1.54,1.201,2.373,1.709
									c2.448,1.492,5.761,1.422,8.143-0.174c0.653-0.438,1.244-0.98,1.958-1.31c1.69-0.781,3.79-0.171,5.143,1.109
									c1.352,1.28,2.063,3.104,2.446,4.926c0.564,2.689,0.482,5.566-0.596,8.093c-1.078,2.527-3.228,4.656-5.881,5.37
									c-3.933,1.058-7.956-1.027-11.497-3.04c-2.258-1.284-4.515-2.568-6.773-3.852c-1.958-1.113-3.945-2.239-6.128-2.797"/>
							</g>
						</g>
					</g>
				</g>
			</g>
			<g>
				<defs>
					<path id="XMLID_22_" d="M160.594,176.41c0,0-17.852,31.53-35.556,18.119c-16.233-12.298-35.655-16.625-35.699-16.62
						l-0.599-2.511l-4.039,6.165c-1.281,0.153-5.066-6.879-5.066-6.879l-0.269,4.241c-0.75,0.104-1.188,0.168-1.188,0.168
						c-5.48,0.145-11.259,0.378-15.898,3.335c-2.769,1.765-4.899,4.365-7.05,6.862c-5.644,6.553-11.76,12.688-18.283,18.341
						c-2.731,2.366-5.667,4.844-6.763,8.312c-1.903,6.021,2.414,12.093,6.548,16.833c7.073,8.11,14.429,15.965,22.051,23.547
						c0.729,0.725,1.568,1.495,2.589,1.507c0.684,0.008,1.318-0.332,1.918-0.663c0.726-0.4,1.452-0.801,2.178-1.201l-0.564,8.802
						c0,0,34.624,7.556,49.171-3.196l-0.89-14.049c-0.659-14.095,0.436-27.094,0.225-42.484
						c31.557,23.284,59.276-24.955,59.276-24.955L160.594,176.41z M65.842,250.145c-6.223-8.524-12.447-17.048-18.67-25.571
						c3.835-4.201,9.037-10.387,14.017-13.086L65.842,250.145z"/>
				</defs>
				<use xlink:href="#XMLID_22_"  style="overflow:visible;fill:#EE4266;"/>
				<clipPath id="XMLID_00000170258399876956326170000002711468352539395213_">
					<use xlink:href="#XMLID_22_"  style="overflow:visible;"/>
				</clipPath>
				
					<polygon style="opacity:0.1;clip-path:url(#XMLID_00000170258399876956326170000002711468352539395213_);fill:#1C1259;" points="
					83.964,171.092 89.023,274.816 51.286,273.973 17.555,207.142 39.691,172.778 				"/>
			</g>
			
				<path style="fill:none;stroke:#1C1259;stroke-width:0.4662;stroke-linecap:round;stroke-linejoin:round;stroke-miterlimit:10;" d="
				M88.741,175.398c0.84,3.825,1.797,8.298,3.779,11.675c-2.859-1.287-5.508-2.997-8.07-4.804c-2.037,1.83-4.074,3.659-6.111,5.489
				c0.409-4.023,0.677-9.078,1.298-13.074l4.714,7.266L88.741,175.398z"/>
			
				<line style="fill:none;stroke:#1C1259;stroke-width:0.4662;stroke-miterlimit:10;" x1="84.449" y1="182.269" x2="88.777" y2="267.473"/>
			<g>
				<g>
					<g>
						<path style="fill:#1C1259;" d="M85.173,199.445c3,0,3.005-4.662,0-4.662C82.173,194.783,82.168,199.445,85.173,199.445
							L85.173,199.445z"/>
					</g>
				</g>
				<g>
					<g>
						<path style="fill:#1C1259;" d="M86.493,220.275c3,0,3.005-4.662,0-4.662C83.493,215.612,83.488,220.275,86.493,220.275
							L86.493,220.275z"/>
					</g>
				</g>
				<g>
					<g>
						<path style="fill:#1C1259;" d="M86.88,237.337c3,0,3.005-4.662,0-4.662C83.88,232.675,83.875,237.337,86.88,237.337
							L86.88,237.337z"/>
					</g>
				</g>
				<g>
					<g>
						<path style="fill:#1C1259;" d="M87.726,254.991c3,0,3.005-4.662,0-4.662C84.726,250.328,84.721,254.991,87.726,254.991
							L87.726,254.991z"/>
					</g>
				</g>
			</g>
		</g>
		<path style="fill:#1C1259;" d="M64.905,264.766"/>
		<path style="fill:#1C1259;" d="M136.423,346.531l-22.347-84.961l-49.171,3.196l-7.751,155.764c0,0,5.06,7.59,13.282,1.265
			L83.452,286.67c2.216,0.467,4.681,0.722,7.458,0.673c2.251-0.039,4.275-0.341,6.11-0.835l24.434,64.45l6.079,70.871
			c10.119,8.222,16.268-3.197,16.268-3.197L136.423,346.531z"/>
		<g>
			<g>
				<path style="fill:#F9B900;" d="M73.577,427.477l-19.163-0.834c0,0,3.458-11.927,10.656-10.945S73.577,427.477,73.577,427.477z"
					/>
				<polygon style="fill:#FFFFFF;" points="54.396,429.63 73.577,430.421 73.577,427.477 54.413,426.643 				"/>
			</g>
			<path style="opacity:0.1;fill:#1C1259;" d="M54.413,426.565c0,0,2.319-10.568,10.656-11.184l-0.432,14.846l-10.242-0.61
				L54.413,426.565z"/>
		</g>
		<g>
			<g>
				<path style="fill:#F9B900;" d="M143.45,414.486l-16.514-0.07l0.78,13.199h36.957c0,0-1.435-4.794-11.482-5.993
					S143.661,417.332,143.45,414.486z"/>
				<polygon style="fill:#FFFFFF;" points="127.779,431.562 164.673,431.51 164.673,427.615 127.717,427.615 				"/>
			</g>
			<path style="opacity:0.1;fill:#1C1259;" d="M126.936,414.416l0.843,17.147l36.894-0.053l0-2.864l-21.188-0.738
				c0,0-5.587-2.741-5.271-13.387L126.936,414.416z"/>
		</g>
		<g>
			<defs>
				<path id="XMLID_12_" d="M63.821,247.392c0,0,13.967-1.373,13.762,4.054c0,0,0.043,1.418-6.557,0.88
					c-6.6-0.538,12.701,9.448,8.248,14.649c-5.255,6.138-22.911-13.047-22.911-13.047L63.821,247.392z"/>
			</defs>
			<use xlink:href="#XMLID_12_"  style="overflow:visible;fill:#EFB6AB;"/>
			<clipPath id="XMLID_00000142869968709628724380000013988095954657181318_">
				<use xlink:href="#XMLID_12_"  style="overflow:visible;"/>
			</clipPath>
			<path style="opacity:0.1;clip-path:url(#XMLID_00000142869968709628724380000013988095954657181318_);fill:#EFB6AB;" d="
				M80.425,267.508c0,0-19.719-8.752-22.745-17.889l-3.141,3.934C54.54,253.553,73.377,276.193,80.425,267.508z"/>
		</g>
		<g>
			<defs>
				<path id="XMLID_11_" d="M157.437,181.627c0,0-3.769-14.935-0.279-15.772s4.187,8.793,4.187,8.793s24.984-6.141,26.24-1.396
					s-17.587,9.91-17.587,9.91L157.437,181.627z"/>
			</defs>
			<use xlink:href="#XMLID_11_"  style="overflow:visible;fill:#EFB6AB;"/>
			<clipPath id="XMLID_00000176738954288064190580000013666303575039389872_">
				<use xlink:href="#XMLID_11_"  style="overflow:visible;"/>
			</clipPath>
			<path style="opacity:0.34;clip-path:url(#XMLID_00000176738954288064190580000013666303575039389872_);fill:#EFB6AB;" d="
				M158.37,165.853c0,0-1.535,10.595,0.837,16.891h-1.954C157.254,182.743,151.391,163.396,158.37,165.853z"/>
			<path style="opacity:0.34;clip-path:url(#XMLID_00000176738954288064190580000013666303575039389872_);fill:#EFB6AB;" d="
				M184.375,170.46c0,0,6.979,5.025-17.308,13.12l8.375,1.256l17.168-8.654C192.61,176.183,189.679,168.786,184.375,170.46z"/>
		</g>
	</g>
	<g>
		
			<rect x="154.852" y="142.633" style="fill:none;stroke:#92959A;stroke-width:1.8649;stroke-miterlimit:10;" width="25.101" height="24.464"/>
		
			<rect x="154.852" y="205.105" style="fill:none;stroke:#92959A;stroke-width:1.8649;stroke-miterlimit:10;" width="25.101" height="24.464"/>
		
			<rect x="154.852" y="263.337" style="fill:none;stroke:#92959A;stroke-width:1.8649;stroke-miterlimit:10;" width="25.101" height="24.464"/>
		
			<rect x="154.852" y="316.763" style="fill:none;stroke:#92959A;stroke-width:1.8649;stroke-miterlimit:10;" width="25.101" height="24.464"/>
	</g>
	<g>
		
			<polyline style="fill:none;stroke:#EE4266;stroke-width:4.6621;stroke-linecap:round;stroke-linejoin:round;stroke-miterlimit:10;" points="
			160.608,149.789 168.499,160.175 183.586,138.904 		"/>
		
			<polyline style="fill:none;stroke:#EE4266;stroke-width:4.6621;stroke-linecap:round;stroke-linejoin:round;stroke-miterlimit:10;" points="
			160.608,212.261 168.499,222.648 183.586,201.377 		"/>
		
			<polyline style="fill:none;stroke:#EE4266;stroke-width:4.6621;stroke-linecap:round;stroke-linejoin:round;stroke-miterlimit:10;" points="
			160.608,270.493 168.499,280.88 183.586,259.609 		"/>
		
			<polyline style="fill:none;stroke:#EE4266;stroke-width:4.6621;stroke-linecap:round;stroke-linejoin:round;stroke-miterlimit:10;" points="
			160.608,323.919 168.499,334.305 183.586,313.035 		"/>
	</g>
</g>
<g id="DESIGNED_BY_FREEPIK">
	<g>
		<g id="XMLID_319_">
			<g id="XMLID_338_">
				<path id="XMLID_346_" style="fill:#1D262D;" d="M260.104,465.465c-0.432,0.443-0.803,0.931-1.108,1.453l-0.465-0.241
					c-0.067-0.298-0.349-0.503-0.659-0.466c-0.331,0.039-0.568,0.339-0.529,0.67c0.039,0.331,0.339,0.568,0.67,0.529
					c0.066-0.008,0.127-0.026,0.184-0.052l0.451,0.234c-0.251,0.554-0.433,1.139-0.539,1.744l0.747,0.132
					c0.23-1.306,0.85-2.507,1.792-3.473L260.104,465.465z"/>
				<path id="XMLID_345_" style="fill:#1D262D;" d="M265.592,463.163c-0.171,0-0.341,0.006-0.51,0.017l-0.074-0.626
					c0.188-0.149,0.296-0.389,0.266-0.645c-0.046-0.393-0.402-0.674-0.795-0.628c-0.393,0.046-0.674,0.402-0.628,0.795
					c0.03,0.254,0.189,0.461,0.404,0.564l0.074,0.624c-0.714,0.116-1.403,0.332-2.06,0.646l0.327,0.684
					c0.934-0.447,1.942-0.673,2.995-0.673c0.496,0,0.993,0.053,1.475,0.158l0.161-0.741
					C266.692,463.222,266.142,463.163,265.592,463.163z"/>
				<path id="XMLID_344_" style="fill:#1D262D;" d="M272.194,465.711c0.331-0.04,0.566-0.341,0.526-0.672
					c-0.04-0.331-0.341-0.566-0.672-0.526c-0.309,0.038-0.535,0.304-0.53,0.609l-0.416,0.363c-0.418-0.43-0.889-0.813-1.408-1.139
					l-0.404,0.641c1.134,0.715,2.021,1.726,2.563,2.925l0.69-0.313c-0.251-0.554-0.567-1.072-0.942-1.545l0.402-0.351
					C272.065,465.716,272.129,465.719,272.194,465.711z"/>
				<path id="XMLID_343_" style="fill:#1D262D;" d="M265.044,473.372c-0.386,0.023-0.775,0.035-1.157,0.035
					c-0.88,0-1.733-0.061-2.478-0.179c-0.39-0.062-0.846-0.155-1.27-0.292c1.046,1.861,3.069,3.125,5.388,3.125
					c2.855,0,5.262-1.916,5.95-4.504c-0.682,0.449-1.505,0.825-2.459,1.123C267.839,473.047,266.463,473.286,265.044,473.372z"/>
				<path id="XMLID_339_" style="fill:#1D262D;" d="M265.592,464.68c-3.352,0-6.08,2.666-6.08,5.943
					c0,0.426,0.046,0.849,0.137,1.261c0.673,0.483,2.706,0.89,5.348,0.731c2.879-0.173,5.297-0.957,6.672-2.159
					c-0.006-0.195-0.021-0.39-0.045-0.582C271.244,466.913,268.65,464.68,265.592,464.68z M263.432,471.194
					c-1.02,0-1.85-0.83-1.85-1.85c0-1.02,0.83-1.85,1.85-1.85c1.02,0,1.85,0.83,1.85,1.85
					C265.282,470.365,264.452,471.194,263.432,471.194z M268.17,470.286c-0.75,0-1.36-0.61-1.36-1.36s0.61-1.361,1.36-1.361
					c0.75,0,1.361,0.61,1.361,1.361S268.92,470.286,268.17,470.286z"/>
			</g>
			<path id="XMLID_336_" style="fill:#1D262D;" d="M281.595,466.547c-0.295-0.116-0.805-0.309-1.382-0.237
				c-0.551,0.069-0.844,0.341-0.844,1.007v0.866h2.228v1.717h-2.228v5.455h-1.932v-5.455h-1.34v-1.717h1.34v-0.888
				c0-1.68,0.896-2.783,2.568-2.783c0.643,0,1.157,0.122,1.59,0.308L281.595,466.547z"/>
			<path id="XMLID_334_" style="fill:#1D262D;" d="M286.298,469.879c-0.177-0.03-0.358-0.046-0.526-0.046
				c-0.896,0-1.51,0.548-1.51,1.614v3.908h-1.932v-7.172h1.873v0.785c0.451-0.673,1.14-0.977,2.021-0.977
				c0.414,0,0.848,0.128,1.094,0.337L286.298,469.879z"/>
			<path id="XMLID_331_" style="fill:#1D262D;" d="M293.965,471.757c0,0.222-0.015,0.489-0.037,0.651h-5.085
				c0.207,1.036,0.933,1.488,1.843,1.488c0.622,0,1.295-0.252,1.813-0.688l1.133,1.243c-0.814,0.748-1.85,1.088-3.057,1.088
				c-2.198,0-3.723-1.495-3.723-3.753c0-2.258,1.48-3.797,3.627-3.797C292.544,467.99,293.958,469.522,293.965,471.757z
				 M288.851,471.091h3.175c-0.177-0.918-0.733-1.436-1.562-1.436C289.554,469.655,289.021,470.203,288.851,471.091z"/>
			<path id="XMLID_328_" style="fill:#1D262D;" d="M301.618,471.757c0,0.222-0.015,0.489-0.037,0.651h-5.085
				c0.207,1.036,0.932,1.488,1.843,1.488c0.622,0,1.295-0.252,1.814-0.688l1.132,1.243c-0.814,0.748-1.85,1.088-3.057,1.088
				c-2.198,0-3.723-1.495-3.723-3.753c0-2.258,1.48-3.797,3.627-3.797C300.197,467.99,301.611,469.522,301.618,471.757z
				 M296.504,471.091h3.175c-0.178-0.918-0.733-1.436-1.562-1.436C297.207,469.655,296.674,470.203,296.504,471.091z"/>
			<path id="XMLID_325_" style="fill:#1D262D;" d="M309.964,471.764c0,2.154-1.495,3.775-3.471,3.775
				c-0.962,0-1.643-0.378-2.109-0.933v3.708h-1.924v-10.133h1.887v0.792c0.466-0.585,1.155-0.984,2.139-0.984
				C308.469,467.99,309.964,469.61,309.964,471.764z M304.287,471.764c0,1.132,0.747,1.976,1.843,1.976
				c1.14,0,1.85-0.881,1.85-1.976c0-1.095-0.71-1.976-1.85-1.976C305.035,469.788,304.287,470.632,304.287,471.764z"/>
			<path id="XMLID_322_" style="fill:#1D262D;" d="M313.068,465.836c0,0.696-0.54,1.229-1.236,1.229
				c-0.696,0-1.229-0.533-1.229-1.229c0-0.696,0.533-1.243,1.229-1.243C312.527,464.592,313.068,465.14,313.068,465.836z
				 M312.809,475.354h-1.932v-7.172h1.932V475.354z"/>
			<path id="XMLID_320_" style="fill:#1D262D;" d="M316.032,470.736l2.701-2.554h2.368l-3.479,3.375l3.501,3.797h-2.376
				l-2.716-2.901v2.901H314.1v-10.658h1.932V470.736z"/>
		</g>
		<g>
			<path style="fill:#1D262D;" d="M184.412,475.289v-1.055c-0.527,0.718-1.391,1.23-2.388,1.23c-1.846,0-3.149-1.406-3.149-3.706
				c0-2.256,1.289-3.721,3.149-3.721c0.952,0,1.816,0.469,2.388,1.245v-3.765h1.099v9.77H184.412z M184.412,473.37v-3.208
				c-0.395-0.615-1.245-1.143-2.124-1.143c-1.421,0-2.27,1.172-2.27,2.739c0,1.567,0.85,2.724,2.27,2.724
				C183.168,474.483,184.017,473.986,184.412,473.37z"/>
			<path style="fill:#1D262D;" d="M186.932,471.744c0-2.051,1.465-3.706,3.486-3.706c2.139,0,3.398,1.67,3.398,3.794v0.279h-5.727
				c0.088,1.333,1.025,2.446,2.549,2.446c0.805,0,1.626-0.322,2.182-0.894l0.527,0.718c-0.703,0.703-1.655,1.084-2.812,1.084
				C188.44,475.465,186.932,473.956,186.932,471.744z M190.403,468.947c-1.509,0-2.256,1.274-2.314,2.358h4.643
				C192.718,470.25,192.015,468.947,190.403,468.947z"/>
			<path style="fill:#1D262D;" d="M194.607,474.351l0.571-0.791c0.469,0.542,1.362,1.011,2.329,1.011c1.084,0,1.67-0.513,1.67-1.216
				c0-1.714-4.38-0.659-4.38-3.281c0-1.098,0.952-2.036,2.636-2.036c1.201,0,2.051,0.454,2.622,1.026l-0.513,0.762
				c-0.424-0.513-1.201-0.894-2.109-0.894c-0.967,0-1.567,0.483-1.567,1.113c0,1.552,4.38,0.527,4.38,3.281
				c0,1.187-0.952,2.138-2.783,2.138C196.306,475.465,195.325,475.113,194.607,474.351z"/>
			<path style="fill:#1D262D;" d="M201.477,466.471c0-0.41,0.337-0.747,0.732-0.747c0.41,0,0.747,0.337,0.747,0.747
				c0,0.41-0.337,0.732-0.747,0.732C201.814,467.203,201.477,466.881,201.477,466.471z M201.667,475.289v-7.075h1.099v7.075H201.667
				z"/>
			<path style="fill:#1D262D;" d="M204.582,477.105l0.556-0.82c0.586,0.703,1.289,0.967,2.3,0.967c1.172,0,2.27-0.571,2.27-2.124
				v-1.011c-0.513,0.718-1.377,1.26-2.373,1.26c-1.845,0-3.149-1.377-3.149-3.662c0-2.27,1.289-3.677,3.149-3.677
				c0.952,0,1.802,0.469,2.373,1.245v-1.069h1.098v6.87c0,2.344-1.641,3.076-3.369,3.076
				C206.237,478.16,205.417,477.926,204.582,477.105z M209.709,473.253v-3.091c-0.381-0.615-1.23-1.143-2.109-1.143
				c-1.421,0-2.27,1.128-2.27,2.695c0,1.553,0.849,2.695,2.27,2.695C208.478,474.41,209.328,473.868,209.709,473.253z"/>
			<path style="fill:#1D262D;" d="M217.413,475.289v-4.629c0-1.245-0.63-1.641-1.582-1.641c-0.865,0-1.685,0.527-2.095,1.099v5.17
				h-1.099v-7.075h1.099v1.025c0.498-0.586,1.465-1.201,2.519-1.201c1.48,0,2.256,0.747,2.256,2.285v4.966H217.413z"/>
			<path style="fill:#1D262D;" d="M219.932,471.744c0-2.051,1.465-3.706,3.486-3.706c2.139,0,3.398,1.67,3.398,3.794v0.279h-5.727
				c0.088,1.333,1.025,2.446,2.549,2.446c0.806,0,1.626-0.322,2.183-0.894l0.527,0.718c-0.703,0.703-1.655,1.084-2.812,1.084
				C221.441,475.465,219.932,473.956,219.932,471.744z M223.404,468.947c-1.509,0-2.256,1.274-2.314,2.358h4.643
				C225.718,470.25,225.015,468.947,223.404,468.947z"/>
			<path style="fill:#1D262D;" d="M233.35,475.289v-1.055c-0.527,0.718-1.392,1.23-2.388,1.23c-1.846,0-3.149-1.406-3.149-3.706
				c0-2.256,1.289-3.721,3.149-3.721c0.952,0,1.817,0.469,2.388,1.245v-3.765h1.098v9.77H233.35z M233.35,473.37v-3.208
				c-0.396-0.615-1.245-1.143-2.124-1.143c-1.421,0-2.27,1.172-2.27,2.739c0,1.567,0.849,2.724,2.27,2.724
				C232.105,474.483,232.954,473.986,233.35,473.37z"/>
			<path style="fill:#1D262D;" d="M239.692,475.289v-9.77h1.098v3.765c0.572-0.776,1.421-1.245,2.388-1.245
				c1.845,0,3.149,1.465,3.149,3.721c0,2.299-1.304,3.706-3.149,3.706c-0.996,0-1.86-0.513-2.388-1.23v1.055H239.692z
				 M242.9,474.483c1.436,0,2.285-1.157,2.285-2.724c0-1.568-0.85-2.739-2.285-2.739c-0.864,0-1.728,0.527-2.109,1.143v3.208
				C241.171,473.986,242.036,474.483,242.9,474.483z"/>
			<path style="fill:#1D262D;" d="M247.528,477.061c0.161,0.073,0.425,0.117,0.601,0.117c0.483,0,0.805-0.161,1.055-0.747
				l0.469-1.069l-2.959-7.148h1.187l2.358,5.8l2.344-5.8h1.201l-3.545,8.51c-0.425,1.025-1.143,1.421-2.08,1.435
				c-0.234,0-0.601-0.044-0.805-0.103L247.528,477.061z"/>
		</g>
	</g>
</g>
</svg>
